<svg viewBox="0 0 96 96" xmlns="http://www.w3.org/2000/svg" xmlns:xlink="http://www.w3.org/1999/xlink" id="Icons_Key" overflow="hidden"><style>
.MsftOfcThm_Accent4_Fill_v2 {
 fill:#FFC000; 
}
.MsftOfcThm_Text1_Stroke_v2 {
 stroke:#000000; 
}
</style>
<path d="M64.5 51.5 71 58 77.5 51.5 84 58 92 48 84 38 43.5 38C39.9 31.4 33 27 25 27 13.4 27 4 36.4 4 48 4 59.6 13.4 69 25 69 33 69 39.9 64.6 43.5 58L50 58 54 54 58 58 64.5 51.5ZM16 54C12.7 54 10 51.3 10 48 10 44.7 12.7 42 16 42 19.3 42 22 44.7 22 48 22 51.3 19.3 54 16 54Z" class="MsftOfcThm_Text1_Stroke_v2 MsftOfcThm_Accent4_Fill_v2" stroke="#000000" stroke-width="2.46155" stroke-linecap="square" fill="#FFC000"/></svg>