<svg viewBox="0 0 150 417" xmlns="http://www.w3.org/2000/svg" xmlns:xlink="http://www.w3.org/1999/xlink" id="c662bad4-1d4e-4903-816e-9fd2459edeae" overflow="hidden"><style>
.MsftOfcResponsive_Fill_000000 {
 fill:#000000; 
}
</style>
<g><path d="M77.633 6.918 80.331 10.695C80.331 10.695 106.769 10.857 114.377 26.666L111.841 28.393C111.841 28.393 120.744 35.083 123.495 41.288 123.495 41.288 129.538 41.369 130.347 47.439 131.156 53.509 136.957 79.704 136.957 79.704L142.757 111.538C142.757 111.538 144.359 126.905 143.512 133.282 142.703 139.379 133.746 167.328 133.746 167.328L136.498 176.878C136.498 176.878 141.192 186.212 140.599 186.806 140.005 187.4 131.346 179.873 128.513 176.77 128.513 176.77 126.301 184 125.33 191.77 124.359 199.54 123.927 211.14 123.064 217.615 122.201 224.09 117.992 236.58 118.586 241.895 119.18 247.21 122.147 260.132 122.309 263.585 122.471 267.038 121.365 279.826 117.993 286.84 114.621 293.854 107.31 312.739 105.799 319.807 104.288 326.875 105.421 333.62 104.828 336.911 104.234 340.202 100.557 344.058 101.645 346.299 104.289 351.748 104.019 361.137 104.019 361.137 104.019 361.137 128.191 366.748 125.763 371.604 125.763 371.604 119.936 380.884 94.685 377.053 94.685 377.053 88.534 373.762 82.059 368.636 82.059 368.636 81.789 381.154 79.631 384.957 77.473 388.761 73.291 389.273 73.291 389.273 73.291 389.273 78.629 394.701 79.901 401.548 80.602 405.325 82.394 406.011 82.059 408.292 81.465 412.339 55.729 418.058 51.52 404.03 51.52 404.03 51.871 399.39 51.412 396.314 50.953 393.239 47.721 390.916 47.905 388.922 48.283 384.821 42.186 377.268 41.43 370.901 40.675 364.534 41.052 330.327 41.052 330.327L44.127 290.724 42.67 274.214 36.897 171.699C36.897 171.699 28.588 163.875 23.516 154.11 18.444 144.345 8.409 124.54 8.409 124.54 6.992 121.571 6.311 117.094 6.898 113.857 7.61 109.929 9.167 104.524 10.162 99.397 11.916 90.36 25.835 43.694 27.832 41.881 38.407 32.277 66.545 19.948 66.545 19.948 66.545 19.948 66.141 11.126 77.633 6.918Z" fill="#FFFFFF"/><g><path d="M82.003 407.023C81.949 406.859 79.271 401.234 78.594 399.057 78.484 398.703 78.374 398.349 78.265 397.994 77.413 394.704 73.23 389.24 73.1 389.137 72.97 389.033 61.126 390.389 55.173 389.69 55.162 389.689 55.152 389.688 55.141 389.687 52.995 389.55 50.995 389.017 49.197 388.103 49.014 388.01 48.796 388.021 48.618 388.124 48.44 388.227 48.154 389.172 48.154 389.299 48.154 389.35 47.727 392.106 47.768 392.401 47.956 393.743 48.501 395.433 49.171 396.502 49.285 396.684 51.248 397.635 51.248 397.635 51.478 398.892 51.577 399.851 52.084 400.899 51.595 401.537 51.708 403.181 51.709 403.455 51.719 405.979 53.783 407.577 55.352 408.563 59.06 411.505 63.379 412.286 67.363 412.286 68.954 412.286 70.542 412.715 71.966 412.553 75.208 412.419 78.127 411.339 80.887 409.747 81.356 409.581 81.838 408.883 82.061 408.453 82.26 408.069 82.134 407.419 82.003 407.023Z" fill="#FFFFFF"/><path d="M125.692 370.955C125.662 370.866 124.335 369.192 124.09 368.989 121.312 366.69 117.824 365.518 114.786 364.677 113.655 364.346 112.497 364.068 111.376 363.8 109.252 363.292 107.055 362.766 105.037 361.862 104.8 361.756 102.781 361.687 102.537 361.871 97.61 365.599 91.302 367.358 85.661 366.577 85.379 366.537 85.107 366.7 85.008 366.968 84.909 367.235 87.749 371.526 87.951 371.742 90.441 374.392 93.774 376.181 97.858 377.058 99.892 377.495 102.086 377.712 104.494 377.712 105.948 377.712 115.385 377.167 118.353 376.19 120.953 375.278 125.826 371.74 125.819 371.537 125.812 371.305 125.745 371.111 125.692 370.955Z" fill="#FFFFFF"/></g><g><path d="M96.274 156.347C90.006 156.868 84.519 155.464 79.09 154.084 78.915 154.205 78.816 154.408 78.828 154.62 78.938 156.532 79.059 158.477 79.173 160.295 79.189 160.553 79.367 160.773 79.616 160.842 84.783 162.297 90.438 162.254 96.112 161.472 96.383 161.435 96.595 161.222 96.632 160.951 96.754 160.047 96.792 159.235 96.833 158.376 96.776 157.743 97.299 156.392 96.274 156.347Z" fill="#FFFFFF"/><path d="M117.958 150.717C117.735 150.598 117.461 150.63 117.271 150.798 115.545 152.321 113.133 153.118 110.812 153.804 110.312 153.898 109.579 154.154 109.864 154.803 110.001 156.502 109.338 158.417 109.166 160.156 108.816 162.2 116.838 158.721 117.271 158.527 117.479 158.428 117.613 158.219 117.617 157.989 117.649 156.046 117.914 154.054 118.17 152.128 118.198 151.656 118.489 151.004 117.958 150.717Z" fill="#FFFFFF"/></g><path d="M109.086 154.591C108.934 154.443 108.716 154.386 108.511 154.439 104.963 155.355 101.429 155.96 98.009 156.236 97.011 156.439 97.568 158.163 97.352 158.904 97.413 159.962 96.91 161.733 97.492 162.645 99.102 163.346 106.885 161.803 107.54 161.2 108.446 160.607 108.554 159.721 108.716 158.38 108.815 157.562 108.939 156.544 109.254 155.161 109.302 154.955 109.238 154.738 109.086 154.591Z" fill="#FFFFFF"/><g><path d="M137.511 90.54C135.033 78.938 134.706 74.289 131.42 60.765 131.163 57.285 130.765 53.815 130.177 50.368 129.702 46.926 128.604 42.587 124.694 41.869 124.017 41.745 123.324 40.741 122.959 40.082 120.243 35.487 115.865 32.529 112.285 28.758 111.756 28.183 110.792 29.039 111.325 29.626 114.202 33.058 115.659 37.088 112.109 39.808 111.933 39.935 111.839 40.147 111.862 40.362 111.884 40.578 114.925 47.164 115.969 50.165 116.038 50.362 116.205 50.514 116.41 50.557 127.36 83.219 123.225 118.394 119.225 153.231 118.184 159.411 119.022 163.809 121.862 167.068 125.951 172.521 131.038 179.303 137.434 184.114 137.653 184.279 137.955 184.276 138.172 184.108 138.388 183.94 138.465 183.647 138.359 183.394 135.818 177.347 134.011 171.114 132.743 164.761 133.612 163.594 135.11 163.853 135.149 163.713 135.879 161.123 136.635 158.167 137.415 155.62 140.667 146.987 142.774 137.838 143.242 130.045 144.011 117.241 140.651 104.846 137.511 90.54Z" fill="#FFFFFF"/><path d="M93.499 196.707C91.205 193.165 88.833 189.5 86.044 186.229 82.149 182.043 77.954 178.189 77.746 172.07 77.203 164.987 77.08 158.049 76.64 150.972 76.291 130.418 72.333 109.396 78.13 89.224 80.805 81.26 84.632 72.936 85.216 65.249 85.725 58.95 84.276 52.908 80.656 46.234 80.546 46.032 77.42 34.456 76.648 32.022 75.273 27.69 73.999 19.183 74.073 16.577 74.136 14.358 76.883 12.12 77.85 11.559 78.18 11.368 80.266 11.282 80.44 10.588 80.678 9.637 79.12 7.543 78.676 7.099 78.16 6.574 77.403 6.793 76.879 7.188 76.158 7.368 68.603 10.668 67.713 14.066 67.662 14.262 67.044 18.283 66.628 20.083 55.49 24.797 43.054 31.338 31.749 39.505 31.047 40.081 30.251 40.733 29.495 40.835 29.328 40.858 29.179 40.948 29.081 41.085 27.459 43.371 26.709 46.052 25.984 48.645 23.482 57.208 20.927 65.754 18.405 74.312 14.778 88.062 9.331 101.233 7.41 115.46 6.963 120.859 9.325 125.547 12.216 130.675 17.709 140.664 22.708 150.673 28.469 160.571 31.478 165.368 35.758 169.169 39.93 172.561 40.131 172.724 40.413 172.742 40.633 172.606 44.874 169.978 48.244 166.507 50.379 162.569 50.485 162.374 53.842 163.105 53.278 163.772 53.135 163.94 53.095 164.173 53.173 164.379 53.454 165.122 53.697 165.903 53.932 166.659 54.619 168.868 55.33 171.153 57.095 172.955 57.208 173.071 58.534 174.112 59.452 176.446 60.447 178.977 62.15 177.849 64.879 184.895 65.879 187.528 66.806 190.25 68.812 192.419 74.456 198.385 86.504 200.022 94.901 200.572 95.362 200.586 95.683 200.012 95.407 199.63 94.765 198.662 94.122 197.668 93.499 196.707Z" fill="#FFFFFF"/></g><path d="M122.165 93.293C121.659 73.267 118.117 56.331 111.335 41.519 111.252 41.338 110.795 40.74 111.031 40.532 112.283 40.02 112.905 39.245 113.243 38.698 115.082 35.724 114.164 33.65 113.243 32.008 111.448 28.807 110.851 28.899 110.329 28.987 110.237 29.002 109.919 29.364 109.843 29.419 109.723 29.505 107.952 30.838 106.768 34.005 105.779 36.649 105.262 40.065 106.282 41.289 106.42 41.454 106.464 41.333 106.66 41.397 104.605 42.598 101.994 46.601 101.966 45.498 101.946 44.71 101.493 43.155 101.355 42.546 101.009 39.772 99.523 37.205 97.168 35.315 97.056 35.225 96.276 34.572 96.093 34.441 92.821 32.086 85.562 25.236 85.562 25.236 81.953 21.734 77.46 17.376 78.819 12.122 78.879 11.89 78.797 11.644 78.609 11.495 78.421 11.346 78.164 11.321 77.951 11.431 76.777 12.041 75.045 14.5 74.91 14.684 73.732 16.177 73.967 17.358 74.215 18.607 74.284 18.955 74.356 19.315 74.405 19.709 74.406 19.716 76.413 30.06 76.481 30.347 77.244 33.56 78.086 36.478 79.054 39.268 79.062 39.291 79.071 39.313 79.081 39.334 89.211 60.192 86.92 67.205 81.385 84.147 80.54 86.734 79.582 89.666 78.596 92.875 78.59 92.894 78.585 92.913 78.582 92.932 75.742 106.87 76.758 121.281 77.74 135.218 78.134 140.813 78.542 146.598 78.689 152.242 78.696 152.503 78.868 152.73 79.117 152.806 83.893 154.277 88.9 155.018 94.04 155.018 94.955 155.018 95.874 154.994 96.796 154.947 102.775 154.642 108.631 153.365 114.202 151.151 114.216 151.146 114.229 151.14 114.242 151.133 115.415 150.566 118.244 148.96 118.386 148.86 118.529 148.759 118.851 146.435 118.851 146.435 120.701 129.013 122.612 110.999 122.165 93.293ZM108.528 141.186C108.316 142.643 108.051 144.089 107.723 145.522 108.022 144.165 108.291 142.719 108.528 141.186ZM94.269 40.004 94.27 40.042C94.274 40.628 94.288 41.225 94.302 41.802 94.331 43.053 94.361 44.346 94.295 45.593 94.29 45.683 94.26 45.7 94.243 45.709 94.198 45.734 94.128 45.734 94.085 45.709 94.042 45.685 93.996 45.666 93.949 45.652 93.894 45.637 93.839 45.62 93.784 45.604 93.937 45.487 94.027 45.305 94.023 45.111 94.01 44.447 94.03 43.762 94.048 43.099 94.058 42.73 94.069 42.362 94.074 41.996 94.089 41.593 94.086 41.165 94.083 40.713 94.073 39.309 94.062 37.781 94.611 36.707 94.185 37.739 94.233 39.058 94.269 40.004ZM89.728 43.72C88.381 42.86 87.113 41.814 85.924 40.662 87.107 41.776 88.371 42.806 89.728 43.72Z" fill="#FFFFFF"/><g><path d="M135.287 168.778C136.926 168.003 137.188 163.376 137.82 161.611 138.309 159.668 138.781 157.728 139.308 155.794 142.448 144.312 146.409 132.707 144.99 120.63 142.289 97.956 137.085 75.612 132.741 53.206 131.628 48.246 130.759 40.014 124.021 40.363 122.521 36.009 116.368 31.574 112.962 28.384 113.406 28.092 113.862 27.815 114.328 27.55 114.913 27.217 114.522 26.283 113.87 26.464 109.848 27.65 106.879 31.35 105.645 35.255 105.435 35.934 105.235 36.658 105.193 37.37 105.101 38.015 105.18 40.322 106.264 39.361 106.764 38.289 106.787 37.002 107.149 35.872 107.821 33.589 109.176 31.466 110.955 29.91 117.799 38.766 109.724 38.831 108.496 43.177 108.169 44.445 108.552 46.119 109.923 46.561 110.398 46.714 110.766 46.063 110.409 45.726 109.101 44.492 109.637 42.923 110.784 41.774 126.142 75.318 121.803 112.821 118.039 148.366 117.664 148.275 117.283 148.4 116.942 148.664 116.005 149.389 115.051 150.07 113.98 150.588 103.035 154.938 90.584 155.703 79.297 152.227 78.785 132.575 75.214 112.514 79.179 93.054 86.554 69.044 91.443 63.393 79.629 39.07 78.617 36.151 77.783 33.194 77.073 30.207 81.083 36.301 86.425 44.187 93.787 46.24 94.211 46.481 94.868 46.277 94.902 45.629 95.001 43.775 94.891 41.888 94.877 40.031 94.823 38.565 94.697 35.842 96.788 35.789 98.926 37.505 100.424 39.912 100.757 42.653 101.101 44.109 100.67 46.835 101.513 47.941 101.376 48.44 101.934 48.919 102.21 48.342 106.422 72.684 113.813 129.465 105.365 151.428 105.022 152.193 106.101 152.656 106.427 151.876 111.329 139.197 109.645 125.173 109.694 111.864 108.992 90.165 106.89 68.442 102.717 47.127 103.457 44.479 104.902 42.813 107.417 41.669 109.715 40.47 112.682 39.198 113.048 36.313 113.104 35.871 112.446 35.756 112.247 36.096 110.108 40.091 104.418 40.32 102.441 44.423 102.353 39.344 99.843 35.905 95.778 33.11 93.252 31.187 90.876 29.107 88.59 26.905 84.953 23.168 79.668 19.473 79.269 13.897 79.949 13.17 79.765 11.939 80.567 11.251 81.275 10.346 79.946 9.644 79.22 10.663 79.005 10.582 78.747 10.682 78.651 10.934 76.687 10.827 75.16 13.232 74.126 14.579 73.704 13.769 72.107 14.058 72.224 15.099 73.351 24.544 74.759 34.162 78.502 42.973 74.968 40.407 70.446 40.354 66.433 39.002 64.73 33.044 67.134 27.039 67.972 21.112 68.216 13.014 71.099 11.444 77.699 7.812 78.39 7.405 77.939 6.246 77.143 6.495 70.714 8.274 65.66 12.638 65.767 19.722 52.982 24.094 41.24 31.143 30.058 38.623 28.954 39.531 27.765 39.976 26.882 41.192 26.156 42.141 25.666 43.233 25.22 44.336 22.37 52.611 20.225 61.131 17.621 69.49 14.279 80.951 10.714 92.348 7.522 103.851 4.913 112.111 3.859 121.095 8.738 128.764 12.933 136.649 17.187 144.502 21.397 152.379 25.207 160.065 29.683 167.48 36.499 172.891 36.309 173.025 36.169 173.232 36.153 173.493 35.92 177.279 36.269 181.135 36.486 184.919 37.137 196.256 37.788 207.593 38.439 218.929 39.771 242.587 41.255 266.238 42.382 289.907 42.413 290.553 42.822 290.95 43.309 291.102 40.066 317.146 39.376 343.547 39.951 369.768 40.075 373.253 41.559 376.417 42.937 379.553 44.238 382.633 45.55 385.753 46.302 389.021 46.386 389.386 46.573 389.638 46.81 389.792 46.562 391.73 46.685 393.62 47.415 395.424 47.921 396.83 48.715 398.654 50.471 398.417 50.63 399.123 50.815 399.829 51.038 400.51 49.674 403.252 50.537 406.364 52.871 408.302 55.401 410.581 58.237 412.656 61.652 413.3 67.136 414.266 76.712 414.133 81.306 410.775 81.614 410.47 81.725 410.092 81.962 409.748 82.402 409.111 82.922 408.625 82.636 407.779 82.39 407.459 82.525 407.181 82.612 406.839 82.594 405.743 82.206 404.534 81.397 403.793 80.697 401.64 80.319 399.274 79.253 397.262 78.022 394.682 76.923 391.953 75.117 389.714 77.765 389.11 79.82 387.051 81.166 384.777 82.759 380.299 82.598 375.12 82.879 370.382 86.535 372.561 89.2 376.206 93.355 377.544 98.145 378.998 103.326 378.543 108.269 378.422 111.475 378.282 114.772 378.171 117.877 377.287 121.16 376.352 123.787 374.349 126.427 372.268 126.606 372.127 126.665 371.959 126.653 371.795 126.734 371.487 126.874 371.181 126.888 370.859 126.861 370.071 126.424 369.07 125.726 368.719 120.589 363.077 112.191 362.857 105.333 360.555 105.602 357.521 105.419 354.451 104.824 351.463 104.504 349.855 104.045 348.3 103.427 346.782 103.138 346.071 102.754 345.282 102.859 344.493 103.45 342.495 105.137 341.033 105.607 338.949 106.005 337.549 106.131 336.064 106.155 334.613 103.77 309.052 125.227 288.292 123.414 262.841 122.493 253.034 117.891 243.352 120.817 233.465 126.965 215.677 124.205 196.522 128.829 178.466 132.207 182.195 135.974 185.627 140.338 188.173 141.379 188.783 142.538 187.575 141.965 186.546 138.86 180.971 136.739 174.961 135.287 168.778ZM75.008 19.632C74.777 17.783 74.09 16.698 75.394 15.05 76.207 13.945 76.973 12.622 78.231 11.968 76.756 17.674 81.643 22.275 85.355 25.88 88.608 29.147 91.987 32.231 95.739 34.933 92.987 35.945 93.558 39.606 93.467 41.982 93.452 43.025 93.396 44.08 93.416 45.125 85.6 41.46 80.553 33.905 76.292 26.692 75.811 24.353 75.39 21.999 75.008 19.632ZM132.012 110.757C132.66 109.679 133.854 109.528 134.881 109.039 135.251 108.82 135.23 108.302 134.881 108.078 134.002 107.459 132.885 107.979 132.077 108.5 132.417 96.756 133.548 85.031 133.624 73.278 136.573 91.873 142.246 110.325 141.953 129.27 141.101 140.515 137.001 151.225 133.959 162.011 131.487 145.072 131.818 127.828 132.012 110.757ZM112.961 40.777C112.865 40.553 112.683 40.395 112.466 40.298 116.555 37.329 114.536 32.355 111.781 29.223 111.802 29.207 111.823 29.19 111.844 29.174 115.374 32.9 119.795 35.903 122.436 40.387 120.395 41.877 119.329 44.301 118.528 46.623 118.196 47.933 117.568 49.073 116.543 49.964 115.462 46.86 114.262 43.797 112.961 40.777ZM48.823 177.582C47.207 177.852 42.925 173.948 41.315 172.884 45.279 170.857 48.539 167.478 50.799 163.653 51.094 163.981 51.426 164.26 51.818 164.442 52.045 164.547 52.31 164.597 52.578 164.593 53.599 167.537 54.071 170.799 56.32 173.143 54.203 175.13 51.684 176.877 48.823 177.582ZM110.376 156.451C110.484 155.83 110.689 155.14 110.415 154.549 110.604 154.495 110.794 154.442 110.983 154.386 113.289 153.706 115.833 152.878 117.673 151.254 117.384 153.457 117.046 155.732 117.01 157.98 114.697 159.082 112.262 159.769 109.762 160.271 110.007 158.974 110.14 157.73 110.376 156.451ZM98.058 156.841C101.635 156.553 105.19 155.924 108.663 155.027 107.309 160.96 109.372 160.647 102.757 161.791 101.251 162.056 99.728 162.175 98.203 162.24 97.817 162.272 97.849 162.174 97.849 161.781 97.849 160.113 98.012 158.525 98.058 156.841ZM81.133 155.202C86.029 156.719 91.198 157.218 96.307 156.954 96.206 158.32 96.213 159.517 96.031 160.871 90.621 161.605 85.069 161.727 79.78 160.257 79.661 158.367 79.544 156.476 79.435 154.586 79.985 154.834 80.551 155.023 81.133 155.202ZM28.99 160.266C23.286 150.472 18.208 140.314 12.745 130.382 10.172 125.819 7.574 120.949 8.009 115.541 9.888 101.495 15.383 88.154 18.985 74.485 21.445 66.168 23.904 57.851 26.364 49.533 27.156 46.734 27.866 43.844 29.574 41.437 30.782 41.273 31.872 40.13 32.807 39.439 43.039 32.11 54.276 26.358 65.646 21.025 65.367 24.213 61.182 39.268 65.583 39.91 68.924 41.765 73.053 41.555 76.401 43.469 77.757 44.198 78.656 45.223 79.674 46.343 79.803 46.485 79.965 46.536 80.123 46.522 89.122 63.112 83.033 72.973 77.553 89.04 71.716 109.173 75.678 130.404 76.035 150.996 76.474 158.023 76.601 165.076 77.141 172.093 77.377 178.456 81.561 182.302 85.602 186.643 89.113 190.768 91.922 195.46 94.902 199.964 86.528 199.274 75.466 198.184 69.258 192.005 67.34 189.934 66.431 187.268 65.448 184.678 64.432 181.884 63.191 178.967 60.591 177.298 60.411 176.182 59.597 175.12 58.98 174.3 59.289 173.381 58.427 172.535 57.528 172.529 55.274 170.227 54.837 167.061 53.741 164.164 54.802 162.912 53.39 161.262 52.713 160.142 51.318 157.862 50.239 155.517 49.414 152.962 45.314 140.526 48.177 126.315 42.167 114.458 50.09 97.272 52.586 76.802 45.756 58.849 45.468 58.008 44.199 58.341 44.415 59.219 47.884 75.367 47.389 92.69 40.917 108.038 40.29 109.777 37.496 114.925 39.798 115.873 42.831 122.546 42.511 130.114 43.381 137.263 44.003 145.912 45.019 154.831 49.845 162.28 47.632 166.36 44.245 169.653 40.312 172.09 36.059 168.635 31.925 164.932 28.99 160.266ZM48.645 392.449C49.187 393.547 49.559 394.708 49.869 395.896 49.223 394.865 48.813 393.653 48.645 392.449ZM81.591 407.433C81.798 408.064 81.279 408.666 80.713 408.842 78.012 410.411 75.005 411.267 71.872 411.394 66.147 412.044 60.398 411.806 55.704 408.066 54.05 407.03 52.325 405.575 52.317 403.451 58.032 413.047 72.79 411.463 81.591 407.433ZM77.681 398.159C78.465 400.712 79.314 403.258 79.785 405.898 70.747 409.793 54.881 410.367 52.647 398.099 52.011 395.126 51.367 391.531 48.736 389.591 48.752 389.491 48.762 389.393 48.762 389.299 48.899 389.106 48.91 388.869 48.922 388.644 50.853 389.624 52.948 390.155 55.103 390.292 60.998 390.985 66.982 390.955 72.862 390.123 72.882 390.338 72.972 390.556 73.158 390.754 75.17 392.896 76.938 395.27 77.681 398.159ZM125.213 371.558C123.009 373.137 120.731 374.713 118.154 375.617 115.226 376.58 112.11 376.719 109.055 376.868 101.823 377.577 93.657 376.93 88.395 371.326 99.077 376.832 114.973 378.043 125.023 370.786 125.051 371.058 125.204 371.291 125.213 371.558ZM104.789 362.415C107.931 363.822 111.34 364.299 114.616 365.259 117.816 366.145 121.114 367.313 123.703 369.457 123.265 370.06 122.174 370.549 121.682 370.778 110.068 375.916 96.128 373.939 85.578 367.178 91.647 368.018 98.052 366.025 102.902 362.355 103.401 362.866 104.316 362.924 104.789 362.415ZM122.335 166.684C119.075 162.957 119.044 157.956 119.826 153.319 121.965 137.211 123.064 120.976 123.939 104.756 124.945 87.007 122.936 69.079 117.295 52.187 117.08 51.207 118.39 50.409 118.885 49.689 120.227 47.358 120.507 44.404 122.481 42.445 127.6 41.752 128.994 46.231 129.578 50.458 132.246 66.086 131.04 82.002 130.142 97.736 129.645 126.276 126.488 156.707 137.8 183.628 131.681 179.026 126.901 172.775 122.335 166.684Z" class="MsftOfcResponsive_Fill_000000"/><g><path d="M103.16 190.212C103.508 193.467 103.756 196.666 103.358 199.932 102.999 202.871 102.134 205.762 101.046 208.507 98.824 214.11 95.446 219.186 92.367 224.337 89.041 229.902 86.138 235.608 84.503 241.911 82.466 249.762 81.63 257.848 80.161 265.81 78.971 272.26 77.219 278.549 74.386 284.481 73.917 285.464 75.351 286.328 75.86 285.343 79.611 278.085 81.371 270.058 82.719 262.06 84.041 254.219 84.97 246.191 87.517 238.622 91.434 226.984 100.321 217.752 103.961 205.995 105.524 200.948 106.015 195.149 104.527 190.026 104.315 189.298 103.074 189.409 103.16 190.212L103.16 190.212Z" fill="#FFFFFF"/><path d="M71.561 282.574C72.132 284.597 72.993 286.535 73.613 288.545 74.194 290.427 74.675 292.334 74.997 294.278 75.602 297.936 75.568 301.714 75.174 305.393 74.366 312.935 71.752 320.192 69.253 327.306 68.467 329.542 67.679 331.777 66.925 334.024 66.545 335.157 66.176 336.293 65.828 337.437 65.473 338.6 65.203 339.744 64.948 340.929 64.703 342.067 66.299 342.497 66.68 341.406 66.999 340.493 67.341 339.605 67.631 338.679 67.94 337.689 68.263 336.703 68.584 335.717 69.198 333.834 69.844 331.961 70.495 330.09 71.773 326.419 73.078 322.756 74.226 319.042 76.427 311.923 78.039 304.441 77.269 296.956 77.007 294.413 76.489 291.906 75.729 289.466 74.946 286.952 73.812 284.288 72.123 282.248 71.9 281.981 71.474 282.267 71.561 282.574L71.561 282.574Z" fill="#FFFFFF"/><path d="M87.64 344.556C87.743 344.513 87.826 344.464 87.906 344.404 87.951 344.371 88.264 344.114 88.315 344.076 88.673 343.815 89.051 343.575 89.423 343.338 90.63 342.57 91.909 341.94 93.178 341.284 94.472 340.615 95.797 340.001 97.171 339.514 97.734 339.315 98.308 339.142 98.894 339.024 98.942 339.014 99.282 338.97 99.39 338.966 99.725 338.952 99.976 338.864 100.258 338.698 100.75 338.408 100.849 337.703 100.438 337.298 99.513 336.385 97.785 337.108 96.741 337.487 95.216 338.04 93.745 338.755 92.315 339.519 90.986 340.229 89.704 341.074 88.496 341.975 88.04 342.315 87.602 342.665 87.211 343.079 87.048 343.251 86.833 343.457 86.774 343.691 86.735 343.842 86.725 343.978 86.77 344.13 86.807 344.255 86.954 344.529 87.129 344.585 87.239 344.619 87.486 344.621 87.64 344.556Z" fill="#FFFFFF"/></g></g></g></svg>